solid big_dummy_collision_box
  facet normal 0 0 -1
    outer loop
      vertex 0.00 0.00 0.00
      vertex 0.30 0.30 0.00
      vertex 0.30 0.00 0.00
    endloop
  endfacet
  facet normal 0 0 -1
    outer loop
      vertex 0.00 0.00 0.00
      vertex 0.00 0.30 0.00
      vertex 0.30 0.30 0.00
    endloop
  endfacet
  facet normal 0 0 1
    outer loop
      vertex 0.00 0.00 0.30
      vertex 0.30 0.00 0.30
      vertex 0.30 0.30 0.30
    endloop
  endfacet
  facet normal 0 0 1
    outer loop
      vertex 0.00 0.00 0.30
      vertex 0.30 0.30 0.30
      vertex 0.00 0.30 0.30
    endloop
  endfacet
  facet normal 1 0 0
    outer loop
      vertex 0.30 0.00 0.00
      vertex 0.30 0.30 0.00
      vertex 0.30 0.30 0.30
    endloop
  endfacet
  facet normal 1 0 0
    outer loop
      vertex 0.30 0.00 0.00
      vertex 0.30 0.30 0.30
      vertex 0.30 0.00 0.30
    endloop
  endfacet
  facet normal -1 0 0
    outer loop
      vertex 0.00 0.00 0.00
      vertex 0.00 0.00 0.30
      vertex 0.00 0.30 0.30
    endloop
  endfacet
  facet normal -1 0 0
    outer loop
      vertex 0.00 0.00 0.00
      vertex 0.00 0.30 0.30
      vertex 0.00 0.30 0.00
    endloop
  endfacet
  facet normal 0 1 0
    outer loop
      vertex 0.00 0.30 0.00
      vertex 0.00 0.30 0.30
      vertex 0.30 0.30 0.30
    endloop
  endfacet
  facet normal 0 1 0
    outer loop
      vertex 0.00 0.30 0.00
      vertex 0.30 0.30 0.30
      vertex 0.30 0.30 0.00
    endloop
  endfacet
  facet normal 0 -1 0
    outer loop
      vertex 0.00 0.00 0.00
      vertex 0.30 0.00 0.00
      vertex 0.30 0.00 0.30
    endloop
  endfacet
  facet normal 0 -1 0
    outer loop
      vertex 0.00 0.00 0.00
      vertex 0.30 0.00 0.30
      vertex 0.00 0.00 0.30
    endloop
  endfacet
endsolid big_dummy_collision_box
