<svg xmlns="http://www.w3.org/2000/svg" xmlns:xlink="http://www.w3.org/1999/xlink" width="740" zoomAndPan="magnify" viewBox="0 0 555 367.499994" height="490" preserveAspectRatio="xMidYMid meet" version="1.0"><defs fill="#3f51b5"><clipPath id="073ba4602b" fill="#3f51b5"><path d="M 9.464844 87.453125 L 545.984375 87.453125 L 545.984375 280 L 9.464844 280 Z M 9.464844 87.453125 " clip-rule="nonzero" fill="#3f51b5"/></clipPath><clipPath id="8686ea5939" fill="#3f51b5"><path d="M 533.738281 87.453125 C 540.261719 87.453125 545.535156 92.726562 545.535156 99.25 L 545.535156 132.324219 C 545.535156 138.847656 540.261719 144.121094 533.738281 144.121094 L 431 144.121094 C 427.867188 144.121094 424.867188 145.367188 422.652344 147.570312 L 294.152344 276.09375 C 291.9375 278.308594 288.941406 279.546875 285.808594 279.546875 L 236.875 279.546875 C 226.363281 279.546875 221.101562 266.84375 228.527344 259.402344 L 343.824219 144.121094 L 397.027344 90.914062 C 399.242188 88.699219 402.242188 87.453125 405.375 87.453125 Z M 316.484375 87.453125 C 326.996094 87.453125 332.257812 100.152344 324.832031 107.59375 L 156.332031 276.09375 C 154.117188 278.308594 151.117188 279.546875 147.984375 279.546875 L 21.261719 279.546875 C 14.738281 279.546875 9.464844 274.269531 9.464844 267.75 L 9.464844 234.710938 C 9.464844 228.1875 14.738281 222.914062 21.261719 222.914062 L 122.742188 222.914062 C 125.863281 222.914062 128.871094 221.664062 131.074219 219.460938 L 196.332031 154.203125 C 200.054688 150.484375 197.421875 144.132812 192.160156 144.132812 L 21.261719 144.132812 C 14.738281 144.121094 9.464844 138.847656 9.464844 132.324219 L 9.464844 99.25 C 9.464844 92.726562 14.738281 87.453125 21.261719 87.453125 Z M 533.738281 222.914062 C 540.261719 222.914062 545.535156 228.199219 545.535156 234.710938 L 545.535156 267.761719 C 545.535156 274.269531 540.25 279.558594 533.738281 279.558594 L 499.511719 279.558594 C 493.003906 279.558594 487.714844 274.285156 487.714844 267.761719 L 487.714844 234.710938 C 487.714844 228.199219 493.003906 222.914062 499.511719 222.914062 Z M 533.738281 222.914062 " clip-rule="nonzero" fill="#3f51b5"/></clipPath><clipPath id="a0e20b13a9" fill="#3f51b5"><path d="M 0.464844 0.453125 L 536.636719 0.453125 L 536.636719 192.699219 L 0.464844 192.699219 Z M 0.464844 0.453125 " clip-rule="nonzero" fill="#3f51b5"/></clipPath><clipPath id="9a5fcd833d" fill="#3f51b5"><path d="M 524.738281 0.453125 C 531.261719 0.453125 536.535156 5.726562 536.535156 12.25 L 536.535156 45.324219 C 536.535156 51.847656 531.261719 57.121094 524.738281 57.121094 L 422 57.121094 C 418.867188 57.121094 415.867188 58.367188 413.652344 60.570312 L 285.152344 189.09375 C 282.9375 191.308594 279.941406 192.546875 276.808594 192.546875 L 227.875 192.546875 C 217.363281 192.546875 212.101562 179.84375 219.527344 172.402344 L 334.824219 57.121094 L 388.027344 3.914062 C 390.242188 1.699219 393.242188 0.453125 396.375 0.453125 Z M 307.484375 0.453125 C 317.996094 0.453125 323.257812 13.152344 315.832031 20.59375 L 147.332031 189.09375 C 145.117188 191.308594 142.117188 192.546875 138.984375 192.546875 L 12.261719 192.546875 C 5.738281 192.546875 0.464844 187.269531 0.464844 180.75 L 0.464844 147.710938 C 0.464844 141.1875 5.738281 135.914062 12.261719 135.914062 L 113.742188 135.914062 C 116.863281 135.914062 119.871094 134.664062 122.074219 132.460938 L 187.332031 67.203125 C 191.054688 63.484375 188.421875 57.132812 183.160156 57.132812 L 12.261719 57.132812 C 5.738281 57.121094 0.464844 51.847656 0.464844 45.324219 L 0.464844 12.25 C 0.464844 5.726562 5.738281 0.453125 12.261719 0.453125 Z M 524.738281 135.914062 C 531.261719 135.914062 536.535156 141.199219 536.535156 147.710938 L 536.535156 180.761719 C 536.535156 187.269531 531.25 192.558594 524.738281 192.558594 L 490.511719 192.558594 C 484.003906 192.558594 478.714844 187.285156 478.714844 180.761719 L 478.714844 147.710938 C 478.714844 141.199219 484.003906 135.914062 490.511719 135.914062 Z M 524.738281 135.914062 " clip-rule="nonzero" fill="#3f51b5"/></clipPath><clipPath id="b6ef4ef960" fill="#3f51b5"><rect x="0" width="537" y="0" height="193" fill="#3f51b5"/></clipPath></defs><g clip-path="url(#115a9b602b)"><g clip-path="url(#8686ea5939)"><g transform="matrix(1, 0, 0, 1, 9, 87)"><g clip-path="url(#b6ef4ef960)"><g clip-path="url(#a0e20b13a9)"><g clip-path="url(#9a5fcd833d)"><path fill="#115a9b" d="M 0.464844 0.453125 L 536.234375 0.453125 L 536.234375 192.546875 L 0.464844 192.546875 Z M 0.464844 0.453125 " fill-opacity="1" fill-rule="nonzero"/></g></g></g></g></g></g></svg>